<mxfile host="app.diagrams.net" modified="2024-02-20T05:48:58.165Z" agent="Mozilla/5.0 (Windows NT 10.0; Win64; x64; rv:121.0) Gecko/20100101 Firefox/121.0" etag="O6A1iUjFCWX6dqEc8Gqt" version="23.0.1" type="github">
  <diagram name="Page-1" id="3CQJeB8ll3eQGCyubroe">
    <mxGraphModel dx="819" dy="442" grid="1" gridSize="10" guides="1" tooltips="1" connect="1" arrows="1" fold="1" page="1" pageScale="1" pageWidth="850" pageHeight="1100" math="0" shadow="0">
      <root>
        <mxCell id="0" />
        <mxCell id="1" parent="0" />
        <mxCell id="apbLcDOzzkScIm0lNbw9-17" style="edgeStyle=orthogonalEdgeStyle;rounded=0;orthogonalLoop=1;jettySize=auto;html=1;exitX=0.5;exitY=1;exitDx=0;exitDy=0;exitPerimeter=0;entryX=0.5;entryY=0;entryDx=0;entryDy=0;" edge="1" parent="1" source="apbLcDOzzkScIm0lNbw9-2" target="apbLcDOzzkScIm0lNbw9-9">
          <mxGeometry relative="1" as="geometry" />
        </mxCell>
        <mxCell id="apbLcDOzzkScIm0lNbw9-2" value="" style="verticalLabelPosition=bottom;html=1;verticalAlign=top;align=center;strokeColor=none;fillColor=#00BEF2;shape=mxgraph.azure.user;" vertex="1" parent="1">
          <mxGeometry x="130" y="150" width="47.5" height="50" as="geometry" />
        </mxCell>
        <mxCell id="apbLcDOzzkScIm0lNbw9-23" style="edgeStyle=orthogonalEdgeStyle;rounded=0;orthogonalLoop=1;jettySize=auto;html=1;exitX=0.5;exitY=1;exitDx=0;exitDy=0;exitPerimeter=0;entryX=0.5;entryY=0;entryDx=0;entryDy=0;" edge="1" parent="1" source="apbLcDOzzkScIm0lNbw9-3" target="apbLcDOzzkScIm0lNbw9-9">
          <mxGeometry relative="1" as="geometry" />
        </mxCell>
        <mxCell id="apbLcDOzzkScIm0lNbw9-3" value="" style="verticalLabelPosition=bottom;html=1;verticalAlign=top;align=center;strokeColor=none;fillColor=#00BEF2;shape=mxgraph.azure.user;" vertex="1" parent="1">
          <mxGeometry x="610" y="150" width="47.5" height="50" as="geometry" />
        </mxCell>
        <mxCell id="apbLcDOzzkScIm0lNbw9-22" style="edgeStyle=orthogonalEdgeStyle;rounded=0;orthogonalLoop=1;jettySize=auto;html=1;exitX=0.5;exitY=1;exitDx=0;exitDy=0;exitPerimeter=0;entryX=0.5;entryY=0;entryDx=0;entryDy=0;" edge="1" parent="1" source="apbLcDOzzkScIm0lNbw9-4" target="apbLcDOzzkScIm0lNbw9-9">
          <mxGeometry relative="1" as="geometry" />
        </mxCell>
        <mxCell id="apbLcDOzzkScIm0lNbw9-4" value="" style="verticalLabelPosition=bottom;html=1;verticalAlign=top;align=center;strokeColor=none;fillColor=#00BEF2;shape=mxgraph.azure.user;" vertex="1" parent="1">
          <mxGeometry x="530" y="150" width="47.5" height="50" as="geometry" />
        </mxCell>
        <mxCell id="apbLcDOzzkScIm0lNbw9-21" style="edgeStyle=orthogonalEdgeStyle;rounded=0;orthogonalLoop=1;jettySize=auto;html=1;exitX=0.5;exitY=1;exitDx=0;exitDy=0;exitPerimeter=0;entryX=0.5;entryY=0;entryDx=0;entryDy=0;" edge="1" parent="1" source="apbLcDOzzkScIm0lNbw9-5" target="apbLcDOzzkScIm0lNbw9-9">
          <mxGeometry relative="1" as="geometry" />
        </mxCell>
        <mxCell id="apbLcDOzzkScIm0lNbw9-5" value="" style="verticalLabelPosition=bottom;html=1;verticalAlign=top;align=center;strokeColor=none;fillColor=#00BEF2;shape=mxgraph.azure.user;" vertex="1" parent="1">
          <mxGeometry x="447.5" y="150" width="47.5" height="50" as="geometry" />
        </mxCell>
        <mxCell id="apbLcDOzzkScIm0lNbw9-15" style="edgeStyle=orthogonalEdgeStyle;rounded=0;orthogonalLoop=1;jettySize=auto;html=1;exitX=0.5;exitY=1;exitDx=0;exitDy=0;exitPerimeter=0;entryX=0.5;entryY=0;entryDx=0;entryDy=0;" edge="1" parent="1" source="apbLcDOzzkScIm0lNbw9-6" target="apbLcDOzzkScIm0lNbw9-9">
          <mxGeometry relative="1" as="geometry" />
        </mxCell>
        <mxCell id="apbLcDOzzkScIm0lNbw9-6" value="" style="verticalLabelPosition=bottom;html=1;verticalAlign=top;align=center;strokeColor=none;fillColor=#00BEF2;shape=mxgraph.azure.user;" vertex="1" parent="1">
          <mxGeometry x="370" y="150" width="47.5" height="50" as="geometry" />
        </mxCell>
        <mxCell id="apbLcDOzzkScIm0lNbw9-19" style="edgeStyle=orthogonalEdgeStyle;rounded=0;orthogonalLoop=1;jettySize=auto;html=1;exitX=0.5;exitY=1;exitDx=0;exitDy=0;exitPerimeter=0;entryX=0.5;entryY=0;entryDx=0;entryDy=0;" edge="1" parent="1" source="apbLcDOzzkScIm0lNbw9-7" target="apbLcDOzzkScIm0lNbw9-9">
          <mxGeometry relative="1" as="geometry" />
        </mxCell>
        <mxCell id="apbLcDOzzkScIm0lNbw9-7" value="" style="verticalLabelPosition=bottom;html=1;verticalAlign=top;align=center;strokeColor=none;fillColor=#00BEF2;shape=mxgraph.azure.user;" vertex="1" parent="1">
          <mxGeometry x="210" y="150" width="47.5" height="50" as="geometry" />
        </mxCell>
        <mxCell id="apbLcDOzzkScIm0lNbw9-20" style="edgeStyle=orthogonalEdgeStyle;rounded=0;orthogonalLoop=1;jettySize=auto;html=1;exitX=0.5;exitY=1;exitDx=0;exitDy=0;exitPerimeter=0;entryX=0.5;entryY=0;entryDx=0;entryDy=0;" edge="1" parent="1" source="apbLcDOzzkScIm0lNbw9-8" target="apbLcDOzzkScIm0lNbw9-9">
          <mxGeometry relative="1" as="geometry" />
        </mxCell>
        <mxCell id="apbLcDOzzkScIm0lNbw9-8" value="" style="verticalLabelPosition=bottom;html=1;verticalAlign=top;align=center;strokeColor=none;fillColor=#00BEF2;shape=mxgraph.azure.user;" vertex="1" parent="1">
          <mxGeometry x="290" y="150" width="47.5" height="50" as="geometry" />
        </mxCell>
        <mxCell id="apbLcDOzzkScIm0lNbw9-9" value="" style="image;aspect=fixed;perimeter=ellipsePerimeter;html=1;align=center;shadow=0;dashed=0;spacingTop=3;image=img/lib/active_directory/generic_server.svg;" vertex="1" parent="1">
          <mxGeometry x="368.55" y="340" width="50.4" height="90" as="geometry" />
        </mxCell>
        <mxCell id="apbLcDOzzkScIm0lNbw9-24" value="LB - Webserver Balancer (HAProxy)" style="text;html=1;strokeColor=none;fillColor=none;align=center;verticalAlign=middle;whiteSpace=wrap;rounded=0;" vertex="1" parent="1">
          <mxGeometry x="415" y="330" width="80" height="30" as="geometry" />
        </mxCell>
        <mxCell id="apbLcDOzzkScIm0lNbw9-31" value="" style="group" vertex="1" connectable="0" parent="1">
          <mxGeometry x="370" y="480" width="130.39999999999998" height="90" as="geometry" />
        </mxCell>
        <mxCell id="apbLcDOzzkScIm0lNbw9-32" value="" style="image;aspect=fixed;perimeter=ellipsePerimeter;html=1;align=center;shadow=0;dashed=0;spacingTop=3;image=img/lib/active_directory/generic_server.svg;" vertex="1" parent="apbLcDOzzkScIm0lNbw9-31">
          <mxGeometry width="50.4" height="90" as="geometry" />
        </mxCell>
        <mxCell id="apbLcDOzzkScIm0lNbw9-33" value="Webserver (Nginx / PHP8.1-fpm)" style="text;html=1;strokeColor=none;fillColor=none;align=center;verticalAlign=middle;whiteSpace=wrap;rounded=0;" vertex="1" parent="apbLcDOzzkScIm0lNbw9-31">
          <mxGeometry x="50.39999999999998" y="20" width="80" height="30" as="geometry" />
        </mxCell>
        <mxCell id="apbLcDOzzkScIm0lNbw9-37" value="" style="group" vertex="1" connectable="0" parent="1">
          <mxGeometry x="527.1" y="480" width="130.39999999999998" height="90" as="geometry" />
        </mxCell>
        <mxCell id="apbLcDOzzkScIm0lNbw9-38" value="" style="image;aspect=fixed;perimeter=ellipsePerimeter;html=1;align=center;shadow=0;dashed=0;spacingTop=3;image=img/lib/active_directory/generic_server.svg;" vertex="1" parent="apbLcDOzzkScIm0lNbw9-37">
          <mxGeometry width="50.4" height="90" as="geometry" />
        </mxCell>
        <mxCell id="apbLcDOzzkScIm0lNbw9-39" value="Webserver (Nginx / PHP8.1-fpm)" style="text;html=1;strokeColor=none;fillColor=none;align=center;verticalAlign=middle;whiteSpace=wrap;rounded=0;" vertex="1" parent="apbLcDOzzkScIm0lNbw9-37">
          <mxGeometry x="50.39999999999998" y="20" width="80" height="30" as="geometry" />
        </mxCell>
        <mxCell id="apbLcDOzzkScIm0lNbw9-40" value="" style="group" vertex="1" connectable="0" parent="1">
          <mxGeometry x="680" y="480" width="130.39999999999998" height="90" as="geometry" />
        </mxCell>
        <mxCell id="apbLcDOzzkScIm0lNbw9-41" value="" style="image;aspect=fixed;perimeter=ellipsePerimeter;html=1;align=center;shadow=0;dashed=0;spacingTop=3;image=img/lib/active_directory/generic_server.svg;" vertex="1" parent="apbLcDOzzkScIm0lNbw9-40">
          <mxGeometry width="50.4" height="90" as="geometry" />
        </mxCell>
        <mxCell id="apbLcDOzzkScIm0lNbw9-42" value="Webserver (Nginx / PHP8.1-fpm)" style="text;html=1;strokeColor=none;fillColor=none;align=center;verticalAlign=middle;whiteSpace=wrap;rounded=0;" vertex="1" parent="apbLcDOzzkScIm0lNbw9-40">
          <mxGeometry x="50.39999999999998" y="20" width="80" height="30" as="geometry" />
        </mxCell>
        <mxCell id="apbLcDOzzkScIm0lNbw9-50" value="" style="group" vertex="1" connectable="0" parent="1">
          <mxGeometry x="50" y="480" width="130.39999999999998" height="90" as="geometry" />
        </mxCell>
        <mxCell id="apbLcDOzzkScIm0lNbw9-51" value="" style="image;aspect=fixed;perimeter=ellipsePerimeter;html=1;align=center;shadow=0;dashed=0;spacingTop=3;image=img/lib/active_directory/generic_server.svg;" vertex="1" parent="apbLcDOzzkScIm0lNbw9-50">
          <mxGeometry width="50.4" height="90" as="geometry" />
        </mxCell>
        <mxCell id="apbLcDOzzkScIm0lNbw9-52" value="Webserver (Nginx / PHP8.1-fpm)" style="text;html=1;strokeColor=none;fillColor=none;align=center;verticalAlign=middle;whiteSpace=wrap;rounded=0;" vertex="1" parent="apbLcDOzzkScIm0lNbw9-50">
          <mxGeometry x="50.39999999999998" y="20" width="80" height="30" as="geometry" />
        </mxCell>
        <mxCell id="apbLcDOzzkScIm0lNbw9-53" value="" style="group" vertex="1" connectable="0" parent="1">
          <mxGeometry x="210" y="480" width="130.39999999999998" height="90" as="geometry" />
        </mxCell>
        <mxCell id="apbLcDOzzkScIm0lNbw9-54" value="" style="image;aspect=fixed;perimeter=ellipsePerimeter;html=1;align=center;shadow=0;dashed=0;spacingTop=3;image=img/lib/active_directory/generic_server.svg;" vertex="1" parent="apbLcDOzzkScIm0lNbw9-53">
          <mxGeometry width="50.4" height="90" as="geometry" />
        </mxCell>
        <mxCell id="apbLcDOzzkScIm0lNbw9-55" value="Webserver (Nginx / PHP8.1-fpm)" style="text;html=1;strokeColor=none;fillColor=none;align=center;verticalAlign=middle;whiteSpace=wrap;rounded=0;" vertex="1" parent="apbLcDOzzkScIm0lNbw9-53">
          <mxGeometry x="50.39999999999998" y="20" width="80" height="30" as="geometry" />
        </mxCell>
        <mxCell id="apbLcDOzzkScIm0lNbw9-58" value="" style="endArrow=classic;html=1;rounded=0;exitX=-0.054;exitY=0.88;exitDx=0;exitDy=0;exitPerimeter=0;" edge="1" parent="1" source="apbLcDOzzkScIm0lNbw9-9">
          <mxGeometry width="50" height="50" relative="1" as="geometry">
            <mxPoint x="390" y="720" as="sourcePoint" />
            <mxPoint x="100" y="490" as="targetPoint" />
          </mxGeometry>
        </mxCell>
        <mxCell id="apbLcDOzzkScIm0lNbw9-59" value="" style="endArrow=classic;html=1;rounded=0;exitX=0.128;exitY=0.985;exitDx=0;exitDy=0;entryX=0.976;entryY=0.083;entryDx=0;entryDy=0;entryPerimeter=0;exitPerimeter=0;" edge="1" parent="1" source="apbLcDOzzkScIm0lNbw9-9" target="apbLcDOzzkScIm0lNbw9-54">
          <mxGeometry width="50" height="50" relative="1" as="geometry">
            <mxPoint x="370" y="450" as="sourcePoint" />
            <mxPoint x="110" y="500" as="targetPoint" />
          </mxGeometry>
        </mxCell>
        <mxCell id="apbLcDOzzkScIm0lNbw9-60" value="" style="endArrow=classic;html=1;rounded=0;entryX=0.976;entryY=0.083;entryDx=0;entryDy=0;entryPerimeter=0;exitX=0.5;exitY=1;exitDx=0;exitDy=0;" edge="1" parent="1" source="apbLcDOzzkScIm0lNbw9-9">
          <mxGeometry width="50" height="50" relative="1" as="geometry">
            <mxPoint x="470" y="390" as="sourcePoint" />
            <mxPoint x="393" y="482" as="targetPoint" />
          </mxGeometry>
        </mxCell>
        <mxCell id="apbLcDOzzkScIm0lNbw9-61" value="" style="endArrow=classic;html=1;rounded=0;entryX=0.405;entryY=0.028;entryDx=0;entryDy=0;entryPerimeter=0;" edge="1" parent="1" target="apbLcDOzzkScIm0lNbw9-38">
          <mxGeometry width="50" height="50" relative="1" as="geometry">
            <mxPoint x="410" y="420" as="sourcePoint" />
            <mxPoint x="403" y="492" as="targetPoint" />
          </mxGeometry>
        </mxCell>
        <mxCell id="apbLcDOzzkScIm0lNbw9-62" value="" style="endArrow=classic;html=1;rounded=0;exitX=0.968;exitY=0.848;exitDx=0;exitDy=0;entryX=0.5;entryY=0;entryDx=0;entryDy=0;exitPerimeter=0;" edge="1" parent="1" source="apbLcDOzzkScIm0lNbw9-9" target="apbLcDOzzkScIm0lNbw9-41">
          <mxGeometry width="50" height="50" relative="1" as="geometry">
            <mxPoint x="480" y="422" as="sourcePoint" />
            <mxPoint x="640" y="480" as="targetPoint" />
          </mxGeometry>
        </mxCell>
      </root>
    </mxGraphModel>
  </diagram>
</mxfile>
